<?xml version="1.0" standalone="no"?>
<!DOCTYPE svg PUBLIC "-//W3C//DTD SVG 20010904//EN"
 "http://www.w3.org/TR/2001/REC-SVG-20010904/DTD/svg10.dtd">
<svg version="1.0" xmlns="http://www.w3.org/2000/svg"
 width="129.000000pt" height="170.000000pt" viewBox="0 0 129.000000 170.000000"
 preserveAspectRatio="xMidYMid meet">

<g transform="translate(0.000000,170.000000) scale(0.100000,-0.100000)"
fill="#000000" stroke="none">
<path d="M0 850 l0 -850 645 0 645 0 0 850 0 850 -645 0 -645 0 0 -850z m175
150 c-10 -11 -26 -22 -37 -26 -11 -3 -28 -20 -39 -37 -18 -28 -20 -29 -14 -7
11 39 33 78 47 83 7 3 24 6 37 6 23 1 24 0 6 -19z m109 -42 c18 -26 20 -38 6
-38 -5 0 -10 7 -10 15 0 16 -30 35 -54 35 -22 0 -46 -28 -39 -46 3 -8 27 -26
53 -39 60 -31 74 -59 44 -89 -33 -34 -114 -11 -114 32 0 12 4 9 13 -8 15 -31
66 -39 91 -15 22 23 8 46 -47 73 -53 26 -63 46 -42 78 21 32 77 33 99 2z m187
-75 l59 5 0 -49 c0 -28 -5 -49 -11 -49 -6 0 -10 12 -9 28 4 50 2 52 -49 52
l-50 0 -4 -47 c-2 -27 -3 -1 -3 57 0 58 1 81 3 52 l4 -54 60 5z m176 -55 c-2
-29 -3 -6 -3 52 0 58 1 81 3 53 2 -29 2 -77 0 -105z m212 13 c22 -40 31 -22
30 54 -1 42 1 79 5 82 3 4 6 -36 6 -89 0 -99 -6 -121 -24 -89 -6 11 -29 47
-51 82 l-40 63 -6 -85 -5 -84 -2 105 -2 105 39 -61 c22 -34 44 -71 50 -83z
m214 -54 l52 -3 -57 -2 -58 -2 2 103 2 102 3 -97 4 -97 52 -4z m30 186 c-13
-2 -35 -2 -50 0 -16 2 -5 4 22 4 28 0 40 -2 28 -4z m-573 -43 c0 -16 -4 -30
-10 -30 -5 0 -10 14 -10 30 0 17 5 30 10 30 6 0 10 -13 10 -30z m555 -50 c4
-6 -7 -10 -27 -9 -27 0 -30 2 -13 9 27 12 33 12 40 0z"/>
</g>
</svg>
